<?xml version="1.0"?>
<svg xmlns="http://www.w3.org/2000/svg" xmlns:xlink="http://www.w3.org/1999/xlink" xmlns:svgjs="http://svgjs.com/svgjs" version="1.1" width="512" height="512" x="0" y="0" viewBox="0 0 256 256" style="enable-background:new 0 0 512 512" xml:space="preserve" class=""><circle r="128" cx="128" cy="128" fill="#ffac55" shape="circle"/><g transform="matrix(0.7,0,0,0.7,38.39999771118164,38.40000114440919)"><rect xmlns="http://www.w3.org/2000/svg" fill="#cecece" height="191.333" rx="15.327" width="223.345" x="16.327" y="12.544" data-original="#cecece" style="" class=""/><path xmlns="http://www.w3.org/2000/svg" d="m26.327 188.55v-160.679a15.327 15.327 0 0 1 15.328-15.327h-10a15.327 15.327 0 0 0 -15.328 15.327v160.679a15.327 15.327 0 0 0 15.327 15.327h10a15.327 15.327 0 0 1 -15.327-15.327z" fill="#afafaf" data-original="#afafaf" style=""/><path xmlns="http://www.w3.org/2000/svg" d="m229.673 188.55v-160.679a15.327 15.327 0 0 0 -15.327-15.327h10a15.327 15.327 0 0 1 15.327 15.327v160.679a15.327 15.327 0 0 1 -15.327 15.327h-10a15.327 15.327 0 0 0 15.327-15.327z" fill="#e2e2e2" data-original="#e2e2e2" style=""/><path xmlns="http://www.w3.org/2000/svg" d="m239.673 27.871a15.327 15.327 0 0 0 -15.327-15.327h-192.691a15.327 15.327 0 0 0 -15.328 15.327v26.673h223.346z" fill="#f8af23" data-original="#f8af23" style="" class=""/><path xmlns="http://www.w3.org/2000/svg" d="m41.655 12.544h-10a15.327 15.327 0 0 0 -15.328 15.327v26.673h10v-26.673a15.327 15.327 0 0 1 15.328-15.327z" fill="#f87023" data-original="#f87023" style="" class=""/><path xmlns="http://www.w3.org/2000/svg" d="m214.345 12.544h10a15.327 15.327 0 0 1 15.327 15.327v26.673h-10v-26.673a15.327 15.327 0 0 0 -15.327-15.327z" fill="#f8d323" data-original="#f8d323" style="" class=""/><circle xmlns="http://www.w3.org/2000/svg" cx="43.688" cy="33.544" fill="#f46275" r="7" data-original="#f46275" style=""/><circle xmlns="http://www.w3.org/2000/svg" cx="70.65" cy="33.544" fill="#f46275" r="7" data-original="#f46275" style=""/><circle xmlns="http://www.w3.org/2000/svg" cx="97.612" cy="33.544" fill="#f46275" r="7" data-original="#f46275" style=""/><rect xmlns="http://www.w3.org/2000/svg" fill="#f46275" height="10.667" rx="5.333" width="99.24" x="120.073" y="28.669" data-original="#f46275" style=""/><circle xmlns="http://www.w3.org/2000/svg" cx="128" cy="154.126" fill="#9e9e9e" r="26.126" data-original="#9e9e9e" style="" class=""/><path xmlns="http://www.w3.org/2000/svg" d="m120.474 180.252h15.053a30.833 30.833 0 0 1 30.833 30.833v21.4a0 0 0 0 1 0 0h-76.72a0 0 0 0 1 0 0v-21.4a30.833 30.833 0 0 1 30.834-30.833z" fill="#63bce7" data-original="#63bce7" style="" class=""/><path xmlns="http://www.w3.org/2000/svg" d="m215.906 76.667h-53.666a5 5 0 0 0 -5 5v43.533a3.457 3.457 0 0 0 5.249 2.957l11.801-7.157h41.617a5 5 0 0 0 5-5v-34.333a5 5 0 0 0 -5.001-5z" fill="#f46275" data-original="#f46275" style=""/><path xmlns="http://www.w3.org/2000/svg" d="m35.094 72h52v16h-52z" fill="#f8af23" data-original="#f8af23" style="" class=""/><path xmlns="http://www.w3.org/2000/svg" d="m35.094 100.211h52v16h-52z" fill="#f8af23" data-original="#f8af23" style="" class=""/><path xmlns="http://www.w3.org/2000/svg" d="m35.094 128.422h52v16h-52z" fill="#f8af23" data-original="#f8af23" style="" class=""/><path xmlns="http://www.w3.org/2000/svg" d="m35.094 156.632h52v16h-52z" fill="#f8af23" data-original="#f8af23" style="" class=""/><g xmlns="http://www.w3.org/2000/svg" fill="#3f3679"><path d="m27.323 241.956h-18a1.5 1.5 0 1 0 0 3h18a1.5 1.5 0 1 0 0-3z" fill="#3f3679" data-original="#3f3679" style="" class=""/><path d="m246.68 241.956h-18a1.5 1.5 0 0 0 0 3h18a1.5 1.5 0 0 0 0-3z" fill="#3f3679" data-original="#3f3679" style="" class=""/><path d="m218.479 241.956h-180.958a1.5 1.5 0 0 0 0 3h180.958a1.5 1.5 0 0 0 0-3z" fill="#3f3679" data-original="#3f3679" style="" class=""/><path d="m9.32 233.983h237.36a1.5 1.5 0 0 0 0-3h-78.82v-19.9a32.358 32.358 0 0 0 -.515-5.707h57a16.846 16.846 0 0 0 16.827-16.827v-160.678a16.846 16.846 0 0 0 -16.827-16.827h-192.69a16.846 16.846 0 0 0 -16.827 16.827v160.68a16.846 16.846 0 0 0 16.827 16.827h57a32.358 32.358 0 0 0 -.515 5.707v19.9h-78.82a1.5 1.5 0 1 0 0 3zm8.508-206.112a13.843 13.843 0 0 1 13.827-13.827h192.69a13.843 13.843 0 0 1 13.827 13.827v25.173h-220.344zm13.827 174.507a13.843 13.843 0 0 1 -13.827-13.827v-132.507h220.344v132.507a13.843 13.843 0 0 1 -13.827 13.827h-57.686a32.413 32.413 0 0 0 -26.759-23.323 27.626 27.626 0 1 0 -23.792 0 32.413 32.413 0 0 0 -26.763 23.323zm71.719-48.252a24.626 24.626 0 1 1 24.626 24.626 24.654 24.654 0 0 1 -24.626-24.626zm-12.234 56.959a29.367 29.367 0 0 1 29.333-29.333h15.053a29.367 29.367 0 0 1 29.333 29.333v19.9h-73.719z" fill="#3f3679" data-original="#3f3679" style="" class=""/><path d="m43.688 25.044a8.5 8.5 0 1 0 8.5 8.5 8.51 8.51 0 0 0 -8.5-8.5zm0 14a5.5 5.5 0 1 1 5.5-5.5 5.507 5.507 0 0 1 -5.5 5.5z" fill="#3f3679" data-original="#3f3679" style="" class=""/><path d="m70.65 25.044a8.5 8.5 0 1 0 8.5 8.5 8.51 8.51 0 0 0 -8.5-8.5zm0 14a5.5 5.5 0 1 1 5.5-5.5 5.507 5.507 0 0 1 -5.5 5.5z" fill="#3f3679" data-original="#3f3679" style="" class=""/><path d="m97.612 25.044a8.5 8.5 0 1 0 8.5 8.5 8.51 8.51 0 0 0 -8.5-8.5zm0 14a5.5 5.5 0 1 1 5.5-5.5 5.507 5.507 0 0 1 -5.5 5.5z" fill="#3f3679" data-original="#3f3679" style="" class=""/><path d="m213.979 27.169h-88.573a6.833 6.833 0 1 0 0 13.667h88.573a6.833 6.833 0 0 0 0-13.667zm0 10.667h-88.573a3.833 3.833 0 1 1 0-7.667h88.573a3.833 3.833 0 1 1 0 7.667z" fill="#3f3679" data-original="#3f3679" style="" class=""/><path d="m158.264 129.515a4.9 4.9 0 0 0 5-.079l11.442-6.936h41.2a6.508 6.508 0 0 0 6.5-6.5v-34.334a6.508 6.508 0 0 0 -6.5-6.5h-53.666a6.508 6.508 0 0 0 -6.5 6.5v43.534a4.9 4.9 0 0 0 2.524 4.315zm.476-47.849a3.5 3.5 0 0 1 3.5-3.5h53.667a3.5 3.5 0 0 1 3.5 3.5v34.334a3.5 3.5 0 0 1 -3.5 3.5h-41.617a1.5 1.5 0 0 0 -.777.217l-11.8 7.152a1.957 1.957 0 0 1 -2.972-1.674z" fill="#3f3679" data-original="#3f3679" style="" class=""/><path d="m87.094 70.5h-52a1.5 1.5 0 0 0 -1.5 1.5v16a1.5 1.5 0 0 0 1.5 1.5h52a1.5 1.5 0 0 0 1.5-1.5v-16a1.5 1.5 0 0 0 -1.5-1.5zm-1.5 16h-49v-13h49z" fill="#3f3679" data-original="#3f3679" style="" class=""/><path d="m87.094 98.711h-52a1.5 1.5 0 0 0 -1.5 1.5v16a1.5 1.5 0 0 0 1.5 1.5h52a1.5 1.5 0 0 0 1.5-1.5v-16a1.5 1.5 0 0 0 -1.5-1.5zm-1.5 16h-49v-13h49z" fill="#3f3679" data-original="#3f3679" style="" class=""/><path d="m87.094 126.922h-52a1.5 1.5 0 0 0 -1.5 1.5v16a1.5 1.5 0 0 0 1.5 1.5h52a1.5 1.5 0 0 0 1.5-1.5v-16a1.5 1.5 0 0 0 -1.5-1.5zm-1.5 16h-49v-13h49z" fill="#3f3679" data-original="#3f3679" style="" class=""/><path d="m87.094 155.133h-52a1.5 1.5 0 0 0 -1.5 1.5v16a1.5 1.5 0 0 0 1.5 1.5h52a1.5 1.5 0 0 0 1.5-1.5v-16a1.5 1.5 0 0 0 -1.5-1.5zm-1.5 16h-49v-13h49z" fill="#3f3679" data-original="#3f3679" style="" class=""/><path d="m170.99 92.729h36.167a1.5 1.5 0 0 0 0-3h-36.167a1.5 1.5 0 0 0 0 3z" fill="#3f3679" data-original="#3f3679" style="" class=""/><path d="m170.99 100.229h36.167a1.5 1.5 0 0 0 0-3h-36.167a1.5 1.5 0 0 0 0 3z" fill="#3f3679" data-original="#3f3679" style="" class=""/><path d="m170.99 107.729h36.167a1.5 1.5 0 0 0 0-3h-36.167a1.5 1.5 0 0 0 0 3z" fill="#3f3679" data-original="#3f3679" style="" class=""/></g></g></svg>
