<svg id="Layer_1" enable-background="new 0 0 510 510" height="512" viewBox="0 0 510 510" width="512" xmlns="http://www.w3.org/2000/svg"><g><g><g><path d="m496.882 174.046c-33.838-101.149-129.347-174.046-241.882-174.046-98.131 0-158.58 55.352-158.747 55.445 0 0-2.513 3.137-2.983 5.222-3.818 16.948-7.385 39.663-7.385 56.238 0 140.833 118.763 254.972 259.596 254.972 54.231 0 114.568-25.992 154.949-57.243z" fill="#99e6fc"/></g><g><path d="m345.459 364.679c-140.833 0-255-114.167-255-255 0-18.615 2.007-36.753 5.795-54.234-58.645 46.72-96.254 118.747-96.254 199.555 0 57.815 19.24 111.135 51.667 153.909l60.006 57.03c6.423 4.373 13.056 8.46 19.881 12.243l60.007 23.865c6.53 1.672 13.161 3.092 19.882 4.248l60.003 3.181c6.698-.428 13.33-1.116 19.886-2.054l59.999-16.278c6.775-2.768 13.408-5.819 19.884-9.14l60.002-42.696c7.023-6.711 13.666-13.823 19.892-21.302l8.456-80.231c-34.331 17.213-73.086 26.904-114.106 26.904z" fill="#8ac9fe"/></g></g><g><path d="m496.873 174.049h-16.863v201.013c10.902-20.393 19.132-42.479 24.189-65.823.178-1.087 5.801-23.477 5.801-54.239 0-28.298-4.618-55.516-13.127-80.951z" fill="#fe0364"/></g><g><path d="m451.099 417.997c11.504-13.819 21.582-28.889 30-44.997v-198.951h-30z" fill="#c3186c"/></g><g><path d="m400.083 228.053v236.638c11.031-7.642 21.444-16.13 31.13-25.386v-211.252z" fill="#ffc344"/></g><g><path d="m401.214 463.901v-235.848h-30v253.95c10.433-5.351 20.45-11.411 30-18.102z" fill="#f99675"/></g><g><path d="m320.157 266.055v235.504c10.671-2.814 21.082-6.296 31.173-10.418v-225.086z" fill="#fe0364"/></g><g><path d="m321.33 501.259v-235.204h-30v241.351c10.197-1.459 20.212-3.513 30-6.147z" fill="#c3186c"/></g><g><path d="m240.231 319.059v190.504c4.888.281 9.81.438 14.769.438 5.522 0 11.005-.181 16.446-.529v-190.413z" fill="#ffc344"/></g><g><path d="m211.446 506.28c9.821 1.69 19.83 2.828 30 3.361v-190.582h-30z" fill="#f99675"/></g><g><path d="m160.304 368.062v123.763c10.115 4.052 20.55 7.477 31.258 10.219v-133.982z" fill="#fe0364"/></g><g><path d="m131.562 478.167c9.478 5.253 19.319 9.93 29.487 13.962v-124.067h-29.487z" fill="#c3186c"/></g><g><path d="m80.378 377.062v63.737c9.746 9.165 20.206 17.579 31.301 25.132v-88.869z" fill="#ffc344"/></g><g><path d="m51.679 408.9c9.022 11.901 19.066 22.982 30 33.119v-64.957h-30z" fill="#f99675"/></g><g><g><path d="m64.976 329.059v-20c45.548 0 91.257-10.32 135.855-30.674 35.91-16.388 71.206-39.283 104.907-68.05 57.71-49.26 91.091-99.27 91.422-99.77l16.687 11.026c-1.4 2.12-34.976 52.505-94.681 103.577-35.15 30.067-72.065 54.046-109.719 71.269-47.324 21.646-95.93 32.622-144.471 32.622z" fill="#ffc344"/></g></g><g><g><path d="m161.05 0v322.099c88.945 0 161.05-72.104 161.05-161.049s-72.105-161.05-161.05-161.05z" fill="#2696ff"/></g><g><g><path d="m0 161.049c0 88.945 72.104 161.049 161.05 161.049v-322.098c-88.946 0-161.05 72.104-161.05 161.049z" fill="#0560e7"/></g></g><g><g><g><circle cx="161.049" cy="161.049" fill="#fff" r="130.653"/></g></g><g><g><path d="m244.2 158.698c2.632.464 2.632 4.239 0 4.702-24.869 4.381-76.596 13.351-83.15 13.351-8.672 0-15.703-7.03-15.703-15.703 0-8.672 7.03-15.703 15.703-15.703 6.554.002 58.281 8.973 83.15 13.353z" fill="#ffc344"/></g></g><g><g><path d="m176.752 161.049c0 8.672-7.03 15.703-15.703 15.703s-15.703-7.03-15.703-15.703c0-6.387 8.517-32.312 13.006-45.533.875-2.578 4.518-2.578 5.394 0 4.489 13.222 13.006 39.147 13.006 45.533z" fill="#fee903"/></g></g><g><g><path d="m206.936 236.091c-72.158 0-130.653-58.495-130.653-130.653 0-18.521 3.862-36.137 10.812-52.1-34.242 23.556-56.699 63.009-56.699 107.712 0 72.158 58.496 130.653 130.653 130.653 53.637 0 99.716-32.325 119.842-78.553-21.029 14.466-46.5 22.941-73.955 22.941z" fill="#c6f0ff"/></g></g></g><g><g><g><path d="m62.821 96.694h18.293v25.848h-18.293z" fill="#6cf5c2" transform="matrix(.5 -.866 .866 .5 -58.948 117.135)"/></g></g><g><g><path d="m240.984 199.557h18.293v25.848h-18.293z" fill="#bbf49b" transform="matrix(.5 -.866 .866 .5 -58.948 322.86)"/></g></g></g><g><g><g><path d="m45.263 151.902h25.848v18.294h-25.848z" fill="#6cf5c2"/></g></g><g><g><path d="m250.988 151.902h25.848v18.294h-25.848z" fill="#bbf49b"/></g></g></g><g><g><g><path d="m59.044 203.334h25.848v18.293h-25.848z" fill="#6cf5c2" transform="matrix(.866 -.5 .5 .866 -96.596 64.448)"/></g></g><g><g><path d="m237.207 100.471h25.848v18.293h-25.848z" fill="#bbf49b" transform="matrix(.866 -.5 .5 .866 -21.298 139.747)"/></g></g></g><g><g><g><path d="m96.695 240.985h25.847v18.293h-25.847z" fill="#6cf5c2" transform="matrix(.5 -.866 .866 .5 -161.812 220.002)"/></g></g><g><g><path d="m199.557 62.821h25.847v18.293h-25.847z" fill="#bbf49b" transform="matrix(.5 -.866 .866 .5 43.917 220)"/></g></g></g><g><g><g><path d="m151.903 250.988h18.293v25.848h-18.293z" fill="#6cf5c2"/></g></g><g><g><path d="m151.903 45.263h18.293v25.848h-18.293z" fill="#bbf49b"/></g></g></g><g><g><g><path d="m203.334 237.208h18.293v25.847h-18.293z" fill="#6cf5c2" transform="matrix(.866 -.5 .5 .866 -96.595 139.741)"/></g></g><g><g><path d="m100.471 59.044h18.293v25.847h-18.293z" fill="#bbf49b" transform="matrix(.866 -.5 .5 .866 -21.298 64.447)"/></g></g></g></g><g><g><g><path d="m424.42 152.976h-20v-32.337h-32.337v-20h42.337c5.522 0 10 4.477 10 10z" fill="#fed402"/></g></g></g></g></svg>