<svg id="Layer_1" enable-background="new 0 0 512 512" height="512" viewBox="0 0 512 512" width="512" xmlns="http://www.w3.org/2000/svg"><g><g><g><g><g><g id="XMLID_949_"><g id="XMLID_950_"><g id="XMLID_951_"><g id="XMLID_997_"><g id="XMLID_998_"><g id="XMLID_999_"><g id="XMLID_1000_"><g id="XMLID_1031_"><g id="XMLID_1032_"><g id="XMLID_1033_"><g id="XMLID_1034_"><g id="XMLID_1035_"><g id="XMLID_1036_"><g id="XMLID_1037_"><g id="XMLID_1038_"><circle cx="256" cy="256" fill="#ff4a4a" r="256"/></g></g></g></g></g></g></g></g></g></g></g></g></g></g></g></g></g></g></g><path d="m512 256c0-15.431-1.366-30.542-3.982-45.221l-134.045-134.045-163.226 5.783-27.256-27.927-75.162 351.772 101.482 101.482c14.982 2.73 30.419 4.156 46.189 4.156 141.385 0 256-114.615 256-256z" fill="#d01273"/><g><g><g><path d="m143.027 110.638h265.644v329.628h-265.644z" fill="#d8f1fb"/><g><path d="m241.15 110.64h167.52v329.63h-167.52z" fill="#bceaf9"/></g><path d="m108.329 76.734h265.644v329.628h-265.644z" fill="#fff"/><path d="m241.15 76.73h132.82v329.63h-132.82z" fill="#ecf9fb"/></g><g><g><path d="m150.169 176.571h90.982v30h-90.982z" fill="#0a617d"/></g></g><g><g><path d="m150.169 241.778h181.965v30h-181.965z" fill="#0a617d"/></g></g><g><g><path d="m150.169 306.984h181.965v30h-181.965z" fill="#0a617d"/></g></g><g><g><path d="m155.212 122.274v-57.145c0-8.894 7.21-16.103 16.103-16.103 8.894 0 16.103 7.21 16.103 16.103v57.145c0 8.894-7.21 16.103-16.103 16.103-8.893 0-16.103-7.21-16.103-16.103z" fill="#ffde1f"/></g></g><path d="m274.42 130.803h57.714v75.768h-57.714z" fill="#1ed3c6"/></g><g><g><path d="m241.15 241.78h90.98v30h-90.98z" fill="#08475e"/></g></g><g><g><path d="m241.15 306.98h90.98v30h-90.98z" fill="#08475e"/></g></g></g></g></svg>